<?xml version="1.0" encoding="UTF-8" standalone="no"?>
<svg
   width="60"
   height="60"
   viewBox="0 0 60 60"
   fill="none"
   version="1.1"
   id="svg2"
   sodipodi:docname="luau.svg"
   inkscape:export-filename="luau.png"
   inkscape:export-xdpi="96"
   inkscape:export-ydpi="96"
   xmlns:inkscape="http://www.inkscape.org/namespaces/inkscape"
   xmlns:sodipodi="http://sodipodi.sourceforge.net/DTD/sodipodi-0.dtd"
   xmlns="http://www.w3.org/2000/svg"
   xmlns:svg="http://www.w3.org/2000/svg">
  <defs
     id="defs2" />
  <sodipodi:namedview
     id="namedview2"
     pagecolor="#505050"
     bordercolor="#ffffff"
     borderopacity="1"
     inkscape:showpageshadow="0"
     inkscape:pageopacity="0"
     inkscape:pagecheckerboard="1"
     inkscape:deskcolor="#505050" />
  <g
     inkscape:groupmode="layer"
     id="layer1"
     inkscape:label="Layer 1"
     transform="matrix(1.0023241,0,0,1.0023241,-0.06975879,-0.06972123)">
    <rect
       x="12.304279"
       y="-3.2249084"
       width="48.876202"
       height="48.876202"
       transform="rotate(15)"
       fill="#00a2ff"
       id="rect1"
       style="stroke-width:1.2219" />
    <rect
       x="45.295696"
       y="2.8845661"
       width="9.7752399"
       height="9.7752399"
       transform="rotate(15)"
       fill="#ffffff"
       id="rect2"
       style="stroke-width:1.2219" />
    <path
       d="m 9.5928347,42.052383 5.9647293,1.598251 -0.363639,1.357293 -7.6331183,-2.045347 3.3725803,-12.586477 1.668389,0.447095 z m 12.8855993,3.915961 c -0.818554,0.565131 -1.830047,0.686344 -3.034479,0.363639 -0.996952,-0.267109 -1.680486,-0.75917 -2.050479,-1.475939 -0.362783,-0.721046 -0.39492,-1.650061 -0.09641,-2.786921 l 1.630632,-6.085698 1.599229,0.428522 -1.619024,6.042442 c -0.37989,1.417777 0.0065,2.281053 1.159099,2.589828 1.221661,0.327471 2.156296,0.08993 2.803661,-0.712615 l 1.82296,-6.8032 1.59923,0.428522 -2.50625,9.353316 -1.521394,-0.407628 z m 9.520473,3.542425 c -0.04277,-0.209068 -0.02969,-0.557678 0.03935,-1.045707 -0.950398,0.573074 -1.941363,0.721413 -2.972895,0.444896 -0.922049,-0.247069 -1.610471,-0.709438 -2.065019,-1.387107 -0.44734,-0.681945 -0.563665,-1.423519 -0.348976,-2.2246 0.260876,-0.973858 0.831995,-1.630021 1.713355,-1.968367 0.888569,-0.3425 2.00429,-0.333824 3.347042,0.02591 l 1.555974,0.417036 0.196971,-0.734854 c 0.149683,-0.559021 0.10154,-1.047539 -0.144674,-1.465553 -0.244747,-0.423878 -0.692698,-0.723001 -1.343973,-0.897489 -0.570508,-0.15286 -1.087496,-0.136975 -1.55072,0.04765 -0.463346,0.184752 -0.749883,0.481674 -0.859488,0.89089 L 27.95795,41.182631 c 0.125123,-0.46689 0.409826,-0.872318 0.854111,-1.216529 0.451616,-0.348487 0.993775,-0.573806 1.626478,-0.67608 0.638445,-0.100685 1.297785,-0.05987 1.977775,0.122313 1.07772,0.288736 1.849353,0.785807 2.315144,1.491213 0.467256,0.699662 0.585781,1.525181 0.355574,2.476557 l -1.153478,4.304893 c -0.230085,0.858755 -0.303644,1.571003 -0.220432,2.136868 l -0.03715,0.138319 z M 29.671666,47.58077 c 0.501348,0.134409 1.011615,0.132088 1.530558,-0.0068 0.519066,-0.138808 0.935002,-0.388688 1.247932,-0.749639 l 0.514178,-1.919124 -1.25343,-0.335779 c -1.959447,-0.525053 -3.092886,-0.2142 -3.400073,0.93268 -0.13441,0.501348 -0.07234,0.938056 0.18634,1.310004 0.258555,0.371948 0.650054,0.628182 1.174495,0.768701 z m 12.205121,3.585436 c -0.818432,0.565131 -1.829925,0.686221 -3.034479,0.363516 -0.996953,-0.267108 -1.680486,-0.759047 -2.050479,-1.475939 -0.362784,-0.721046 -0.39492,-1.649938 -0.09641,-2.786799 l 1.630632,-6.08582 1.599229,0.428523 -1.619024,6.042564 c -0.37989,1.417654 0.0065,2.28093 1.159099,2.589828 1.221783,0.327348 2.156296,0.08981 2.803661,-0.712737 l 1.82296,-6.803201 1.599229,0.428522 -2.506249,9.353439 -1.521394,-0.40775 z"
       fill="#ffffff"
       id="path2"
       style="stroke-width:1.2219" />
  </g>
</svg>
